<?xml version="1.0" encoding="UTF-8"?>
<svg xmlns="http://www.w3.org/2000/svg" width="219.894" height="69.267" viewBox="0 0 219.894 69.267">
  <defs>
    <style>
      .b {
        fill: #0073bd;
      }

      .c {
        fill: #ed1c24;
      }
    </style>
  </defs>
  <polygon class="c" points="153.356 3.554 173.048 3.554 162.316 65.651 142.624 65.651 153.356 3.554"/>
  <polygon class="c" points="169.276 65.651 180.008 3.554 199.7 3.554 191.967 48.3 219.894 48.3 216.895 65.651 169.276 65.651"/>
  <path class="b" d="M76.987,48.148c-1.01,5.844-2.02,11.689-3.03,17.533-26.799,12.42-47.158-12.419-73.957,0,1.01-5.844,2.02-11.689,3.031-17.533,26.798-12.419,47.157,12.419,73.956,0"/>
  <path class="b" d="M84.689,3.585c-1.01,5.844-2.02,11.689-3.03,17.533-26.799,12.42-47.158-12.419-73.957,0,1.01-5.844,2.02-11.689,3.031-17.533,26.798-12.419,47.157,12.419,73.956,0"/>
  <path class="b" d="M80.843,25.836c-1.01,5.844-2.02,11.689-3.03,17.533-26.799,12.42-47.158-12.419-73.957,0,1.01-5.844,2.02-11.689,3.031-17.533,26.798-12.419,47.157,12.419,73.956,0"/>
  <path class="c" d="M109.77,20.904l-2.114,12.237h9.666c3.402,0,6.276-2.648,6.876-6.118.584-3.379-1.359-6.119-4.761-6.119h-9.667ZM93.077,3.554h32.492c12.442,0,21.71,7.488,18.916,23.652-2.525,14.61-14.586,23.286-27.028,23.286h-12.8l-2.62,15.159h-19.692L93.077,3.554Z"/>
</svg>