<svg xmlns="http://www.w3.org/2000/svg" width="760" height="230" viewBox="180 235 760 230" preserveAspectRatio="xMidYMid meet">
<g transform="translate(201 250.5) scale(0.625)"><path d="M 56.0,142.0 L 48.0,144.0 L 42.0,148.0 L 35.0,156.0 L 30.0,167.0 L 28.0,188.0 L 34.0,208.0 L 41.0,216.0 L 46.0,216.0 L 48.0,210.0 L 42.0,200.0 L 40.0,193.0 L 39.0,178.0 L 44.0,162.0 L 49.0,157.0 L 54.0,156.0 L 68.0,184.0 L 68.0,187.0 L 57.0,211.0 L 54.0,226.0 L 53.0,246.0 L 59.0,271.0 L 68.0,288.0 L 72.0,292.0 L 76.0,293.0 L 81.0,288.0 L 72.0,275.0 L 67.0,262.0 L 65.0,251.0 L 66.0,222.0 L 73.0,203.0 L 76.0,200.0 L 79.0,203.0 L 79.0,206.0 L 73.0,221.0 L 71.0,248.0 L 75.0,266.0 L 84.0,278.0 L 88.0,278.0 L 91.0,275.0 L 91.0,272.0 L 84.0,260.0 L 84.0,242.0 L 96.0,232.0 L 111.0,244.0 L 116.0,243.0 L 117.0,237.0 L 86.0,196.0 L 72.0,169.0 L 72.0,166.0 L 68.0,159.0 L 71.0,158.0 L 78.0,166.0 L 97.0,200.0 L 108.0,214.0 L 122.0,228.0 L 128.0,228.0 L 131.0,222.0 L 107.0,195.0 L 82.0,152.0 L 71.0,144.0 Z" fill="#ffffff"/>
<path d="M 274.0,73.0 L 269.0,77.0 L 278.0,90.0 L 282.0,99.0 L 286.0,119.0 L 284.0,147.0 L 280.0,160.0 L 275.0,169.0 L 272.0,169.0 L 271.0,163.0 L 276.0,153.0 L 279.0,140.0 L 279.0,118.0 L 274.0,97.0 L 266.0,87.0 L 263.0,86.0 L 259.0,89.0 L 259.0,94.0 L 264.0,102.0 L 267.0,112.0 L 268.0,124.0 L 266.0,131.0 L 253.0,142.0 L 251.0,142.0 L 235.0,126.0 L 229.0,128.0 L 227.0,135.0 L 242.0,149.0 L 255.0,165.0 L 255.0,167.0 L 259.0,170.0 L 269.0,186.0 L 278.0,207.0 L 275.0,207.0 L 271.0,203.0 L 249.0,167.0 L 232.0,149.0 L 225.0,144.0 L 221.0,144.0 L 218.0,147.0 L 218.0,152.0 L 241.0,175.0 L 257.0,202.0 L 266.0,214.0 L 275.0,220.0 L 290.0,222.0 L 301.0,219.0 L 310.0,210.0 L 314.0,201.0 L 315.0,182.0 L 314.0,174.0 L 309.0,161.0 L 307.0,159.0 L 303.0,159.0 L 299.0,162.0 L 304.0,182.0 L 303.0,198.0 L 300.0,205.0 L 296.0,209.0 L 293.0,209.0 L 280.0,183.0 L 291.0,162.0 L 295.0,150.0 L 297.0,114.0 L 293.0,96.0 L 289.0,87.0 L 279.0,74.0 Z" fill="#ffffff"/>
<path d="M 212.0,60.0 L 210.0,51.0 L 203.0,41.0 L 191.0,35.0 L 176.0,34.0 L 160.0,39.0 L 157.0,42.0 L 157.0,45.0 L 161.0,48.0 L 180.0,44.0 L 190.0,46.0 L 198.0,54.0 L 195.0,59.0 L 180.0,65.0 L 170.0,66.0 L 137.0,54.0 L 103.0,52.0 L 100.0,54.0 L 87.0,56.0 L 77.0,61.0 L 65.0,70.0 L 65.0,74.0 L 68.0,77.0 L 73.0,77.0 L 91.0,66.0 L 107.0,63.0 L 129.0,64.0 L 157.0,73.0 L 159.0,75.0 L 153.0,78.0 L 140.0,73.0 L 124.0,70.0 L 101.0,70.0 L 86.0,75.0 L 78.0,82.0 L 81.0,87.0 L 85.0,88.0 L 99.0,82.0 L 113.0,82.0 L 119.0,86.0 L 130.0,98.0 L 116.0,112.0 L 116.0,116.0 L 122.0,120.0 L 163.0,87.0 L 177.0,78.0 L 194.0,71.0 L 195.0,73.0 L 191.0,77.0 L 164.0,94.0 L 131.0,122.0 L 130.0,127.0 L 138.0,130.0 L 161.0,110.0 L 199.0,85.0 L 209.0,74.0 Z" fill="#ffffff"/>
<path d="M 272.0,291.0 L 269.0,288.0 L 264.0,288.0 L 247.0,296.0 L 226.0,299.0 L 209.0,297.0 L 185.0,288.0 L 183.0,286.0 L 185.0,284.0 L 189.0,284.0 L 201.0,289.0 L 211.0,291.0 L 235.0,291.0 L 244.0,289.0 L 256.0,282.0 L 254.0,276.0 L 246.0,276.0 L 236.0,280.0 L 218.0,279.0 L 214.0,275.0 L 210.0,265.0 L 219.0,256.0 L 221.0,250.0 L 214.0,246.0 L 186.0,269.0 L 155.0,288.0 L 145.0,292.0 L 145.0,289.0 L 151.0,282.0 L 174.0,269.0 L 204.0,245.0 L 206.0,238.0 L 203.0,235.0 L 199.0,235.0 L 186.0,247.0 L 168.0,260.0 L 141.0,276.0 L 136.0,282.0 L 133.0,289.0 L 133.0,301.0 L 140.0,314.0 L 145.0,317.0 L 161.0,323.0 L 174.0,323.0 L 184.0,320.0 L 187.0,317.0 L 187.0,314.0 L 184.0,311.0 L 170.0,314.0 L 152.0,309.0 L 149.0,304.0 L 161.0,296.0 L 173.0,293.0 L 185.0,300.0 L 201.0,306.0 L 220.0,310.0 L 235.0,310.0 L 248.0,307.0 L 265.0,300.0 L 272.0,295.0 Z" fill="#ffffff"/>
<path d="M 21.0,143.0 L 13.0,162.0 L 11.0,186.0 L 16.0,210.0 L 20.0,219.0 L 30.0,231.0 L 35.0,232.0 L 38.0,230.0 L 38.0,227.0 L 30.0,216.0 L 24.0,200.0 L 22.0,186.0 L 24.0,164.0 L 30.0,150.0 L 41.0,139.0 L 54.0,134.0 L 68.0,135.0 L 80.0,141.0 L 90.0,152.0 L 113.0,191.0 L 130.0,209.0 L 136.0,209.0 L 138.0,207.0 L 137.0,200.0 L 119.0,180.0 L 97.0,142.0 L 86.0,131.0 L 78.0,126.0 L 65.0,123.0 L 45.0,125.0 L 27.0,135.0 Z" fill="#ffffff"/>
<path d="M 329.0,216.0 L 333.0,197.0 L 333.0,178.0 L 328.0,157.0 L 322.0,145.0 L 319.0,143.0 L 313.0,144.0 L 311.0,146.0 L 311.0,149.0 L 316.0,156.0 L 321.0,172.0 L 321.0,203.0 L 319.0,210.0 L 313.0,220.0 L 308.0,225.0 L 297.0,231.0 L 280.0,231.0 L 270.0,227.0 L 258.0,215.0 L 242.0,188.0 L 230.0,173.0 L 217.0,162.0 L 211.0,166.0 L 211.0,170.0 L 225.0,184.0 L 253.0,227.0 L 261.0,234.0 L 273.0,241.0 L 281.0,243.0 L 297.0,243.0 L 308.0,239.0 L 322.0,227.0 Z" fill="#ffffff"/>
<path d="M 196.0,19.0 L 168.0,19.0 L 153.0,24.0 L 144.0,29.0 L 142.0,32.0 L 143.0,36.0 L 150.0,38.0 L 158.0,33.0 L 168.0,30.0 L 194.0,30.0 L 204.0,34.0 L 213.0,42.0 L 217.0,48.0 L 219.0,56.0 L 219.0,67.0 L 214.0,80.0 L 203.0,91.0 L 172.0,110.0 L 160.0,120.0 L 148.0,133.0 L 152.0,138.0 L 157.0,138.0 L 179.0,119.0 L 207.0,102.0 L 222.0,89.0 L 229.0,76.0 L 231.0,69.0 L 231.0,55.0 L 225.0,39.0 L 215.0,28.0 Z" fill="#ffffff"/>
<path d="M 183.0,226.0 L 181.0,226.0 L 155.0,247.0 L 133.0,259.0 L 122.0,270.0 L 116.0,279.0 L 114.0,295.0 L 117.0,309.0 L 129.0,325.0 L 145.0,334.0 L 189.0,335.0 L 204.0,330.0 L 204.0,325.0 L 201.0,322.0 L 197.0,322.0 L 184.0,327.0 L 171.0,328.0 L 154.0,326.0 L 145.0,323.0 L 133.0,314.0 L 126.0,300.0 L 126.0,287.0 L 132.0,276.0 L 143.0,266.0 L 169.0,251.0 L 186.0,236.0 L 187.0,230.0 Z" fill="#ffffff"/></g>
<g fill="#ffffff" fill-opacity="1"><g transform="translate(464.255982, 378.939025)"><g><path d="M 31.578125 1.40625 C 25.910156 1.40625 20.410156 0.707031 15.078125 -0.6875 C 9.753906 -2.09375 5.425781 -3.960938 2.09375 -6.296875 L 8.59375 -20.890625 C 11.726562 -18.816406 15.359375 -17.144531 19.484375 -15.875 C 23.617188 -14.613281 27.6875 -13.984375 31.6875 -13.984375 C 39.28125 -13.984375 43.078125 -15.882812 43.078125 -19.6875 C 43.078125 -21.6875 41.992188 -23.164062 39.828125 -24.125 C 37.660156 -25.09375 34.175781 -26.113281 29.375 -27.1875 C 24.113281 -28.3125 19.71875 -29.523438 16.1875 -30.828125 C 12.65625 -32.128906 9.625 -34.210938 7.09375 -37.078125 C 4.5625 -39.941406 3.296875 -43.804688 3.296875 -48.671875 C 3.296875 -52.929688 4.460938 -56.773438 6.796875 -60.203125 C 9.128906 -63.640625 12.609375 -66.359375 17.234375 -68.359375 C 21.867188 -70.359375 27.550781 -71.359375 34.28125 -71.359375 C 38.875 -71.359375 43.398438 -70.835938 47.859375 -69.796875 C 52.328125 -68.765625 56.257812 -67.253906 59.65625 -65.265625 L 53.5625 -50.5625 C 46.90625 -54.164062 40.441406 -55.96875 34.171875 -55.96875 C 30.242188 -55.96875 27.378906 -55.382812 25.578125 -54.21875 C 23.785156 -53.050781 22.890625 -51.535156 22.890625 -49.671875 C 22.890625 -47.804688 23.953125 -46.40625 26.078125 -45.46875 C 28.210938 -44.539062 31.644531 -43.578125 36.375 -42.578125 C 41.707031 -41.441406 46.117188 -40.222656 49.609375 -38.921875 C 53.109375 -37.628906 56.140625 -35.566406 58.703125 -32.734375 C 61.273438 -29.898438 62.5625 -26.050781 62.5625 -21.1875 C 62.5625 -16.988281 61.394531 -13.191406 59.0625 -9.796875 C 56.726562 -6.398438 53.226562 -3.679688 48.5625 -1.640625 C 43.90625 0.390625 38.242188 1.40625 31.578125 1.40625 Z M 31.578125 1.40625 "/></g></g></g><g fill="#ffffff" fill-opacity="1"><g transform="translate(525.917329, 378.939025)"><g><path d="M 53.859375 -13.59375 L 24.28125 -13.59375 L 18.78125 0 L -1.40625 0 L 29.484375 -69.953125 L 48.96875 -69.953125 L 79.953125 0 L 59.359375 0 Z M 48.0625 -28.1875 L 39.078125 -50.5625 L 30.078125 -28.1875 Z M 48.0625 -28.1875 "/></g></g></g><g fill="#ffffff" fill-opacity="1"><g transform="translate(601.469983, 378.939025)"><g><path d="M 21.890625 -54.265625 L 0.40625 -54.265625 L 0.40625 -69.953125 L 63.0625 -69.953125 L 63.0625 -54.265625 L 41.671875 -54.265625 L 41.671875 0 L 21.890625 0 Z M 21.890625 -54.265625 "/></g></g></g><g fill="#ffffff" fill-opacity="1"><g transform="translate(661.932081, 378.939025)"><g><path d="M 21.890625 -54.265625 L 0.40625 -54.265625 L 0.40625 -69.953125 L 63.0625 -69.953125 L 63.0625 -54.265625 L 41.671875 -54.265625 L 41.671875 0 L 21.890625 0 Z M 21.890625 -54.265625 "/></g></g></g><g fill="#ffffff" fill-opacity="1"><g transform="translate(722.394168, 378.939025)"><g><path d="M 77.953125 -69.953125 L 47.96875 0 L 28.484375 0 L -1.40625 -69.953125 L 19.984375 -69.953125 L 38.96875 -24.390625 L 58.359375 -69.953125 Z M 77.953125 -69.953125 "/></g></g></g><g fill="#ffffff" fill-opacity="1"><g transform="translate(795.948088, 378.939025)"><g><path d="M 53.859375 -13.59375 L 24.28125 -13.59375 L 18.78125 0 L -1.40625 0 L 29.484375 -69.953125 L 48.96875 -69.953125 L 79.953125 0 L 59.359375 0 Z M 48.0625 -28.1875 L 39.078125 -50.5625 L 30.078125 -28.1875 Z M 48.0625 -28.1875 "/></g></g></g><g fill="#ffffff" fill-opacity="1"><g transform="translate(475.776005, 430.068016)"><g><path d="M 30.421875 -26.109375 L 30.421875 -4.375 C 30.421875 0.414062 29.175781 3.972656 26.6875 6.296875 C 24.195312 8.628906 20.554688 9.796875 15.765625 9.796875 C 13.242188 9.796875 10.847656 9.488281 8.578125 8.875 C 6.316406 8.257812 4.441406 7.375 2.953125 6.21875 L 5.96875 0.78125 C 7.070312 1.6875 8.460938 2.40625 10.140625 2.9375 C 11.828125 3.46875 13.507812 3.734375 15.1875 3.734375 C 17.8125 3.734375 19.742188 3.140625 20.984375 1.953125 C 22.234375 0.773438 22.859375 -1.003906 22.859375 -3.390625 L 22.859375 -4.515625 C 20.878906 -2.347656 18.128906 -1.265625 14.609375 -1.265625 C 12.210938 -1.265625 10.019531 -1.789062 8.03125 -2.84375 C 6.039062 -3.894531 4.460938 -5.375 3.296875 -7.28125 C 2.128906 -9.1875 1.546875 -11.382812 1.546875 -13.875 C 1.546875 -16.363281 2.128906 -18.5625 3.296875 -20.46875 C 4.460938 -22.382812 6.039062 -23.867188 8.03125 -24.921875 C 10.019531 -25.972656 12.210938 -26.5 14.609375 -26.5 C 18.390625 -26.5 21.269531 -25.253906 23.25 -22.765625 L 23.25 -26.109375 Z M 16.109375 -7.46875 C 18.117188 -7.46875 19.757812 -8.054688 21.03125 -9.234375 C 22.3125 -10.421875 22.953125 -11.96875 22.953125 -13.875 C 22.953125 -15.789062 22.3125 -17.335938 21.03125 -18.515625 C 19.757812 -19.691406 18.117188 -20.28125 16.109375 -20.28125 C 14.109375 -20.28125 12.457031 -19.691406 11.15625 -18.515625 C 9.863281 -17.335938 9.21875 -15.789062 9.21875 -13.875 C 9.21875 -11.96875 9.863281 -10.421875 11.15625 -9.234375 C 12.457031 -8.054688 14.109375 -7.46875 16.109375 -7.46875 Z M 16.109375 -7.46875 "/></g></g></g><g fill="#ffffff" fill-opacity="1"><g transform="translate(510.715971, 430.068016)"><g><path d="M 3.5 -36.015625 L 11.0625 -36.015625 L 11.0625 0 L 3.5 0 Z M 3.5 -36.015625 "/></g></g></g><g fill="#ffffff" fill-opacity="1"><g transform="translate(526.293508, 430.068016)"><g><path d="M 15.921875 0.390625 C 13.171875 0.390625 10.703125 -0.179688 8.515625 -1.328125 C 6.328125 -2.484375 4.617188 -4.078125 3.390625 -6.109375 C 2.160156 -8.148438 1.546875 -10.46875 1.546875 -13.0625 C 1.546875 -15.644531 2.160156 -17.953125 3.390625 -19.984375 C 4.617188 -22.023438 6.328125 -23.617188 8.515625 -24.765625 C 10.703125 -25.921875 13.171875 -26.5 15.921875 -26.5 C 18.671875 -26.5 21.128906 -25.921875 23.296875 -24.765625 C 25.460938 -23.617188 27.160156 -22.023438 28.390625 -19.984375 C 29.617188 -17.953125 30.234375 -15.644531 30.234375 -13.0625 C 30.234375 -10.46875 29.617188 -8.148438 28.390625 -6.109375 C 27.160156 -4.078125 25.460938 -2.484375 23.296875 -1.328125 C 21.128906 -0.179688 18.671875 0.390625 15.921875 0.390625 Z M 15.921875 -5.828125 C 17.859375 -5.828125 19.445312 -6.476562 20.6875 -7.78125 C 21.9375 -9.09375 22.5625 -10.851562 22.5625 -13.0625 C 22.5625 -15.257812 21.9375 -17.007812 20.6875 -18.3125 C 19.445312 -19.625 17.859375 -20.28125 15.921875 -20.28125 C 13.972656 -20.28125 12.367188 -19.625 11.109375 -18.3125 C 9.847656 -17.007812 9.21875 -15.257812 9.21875 -13.0625 C 9.21875 -10.851562 9.847656 -9.09375 11.109375 -7.78125 C 12.367188 -6.476562 13.972656 -5.828125 15.921875 -5.828125 Z M 15.921875 -5.828125 "/></g></g></g><g fill="#ffffff" fill-opacity="1"><g transform="translate(559.049747, 430.068016)"><g><path d="M 18.921875 -26.5 C 21.347656 -26.5 23.554688 -25.941406 25.546875 -24.828125 C 27.535156 -23.710938 29.097656 -22.140625 30.234375 -20.109375 C 31.367188 -18.085938 31.9375 -15.738281 31.9375 -13.0625 C 31.9375 -10.375 31.367188 -8.015625 30.234375 -5.984375 C 29.097656 -3.960938 27.535156 -2.394531 25.546875 -1.28125 C 23.554688 -0.164062 21.347656 0.390625 18.921875 0.390625 C 15.335938 0.390625 12.601562 -0.742188 10.71875 -3.015625 L 10.71875 0 L 3.5 0 L 3.5 -36.015625 L 11.0625 -36.015625 L 11.0625 -23.34375 C 12.96875 -25.445312 15.585938 -26.5 18.921875 -26.5 Z M 17.609375 -5.828125 C 19.554688 -5.828125 21.148438 -6.476562 22.390625 -7.78125 C 23.640625 -9.09375 24.265625 -10.851562 24.265625 -13.0625 C 24.265625 -15.257812 23.640625 -17.007812 22.390625 -18.3125 C 21.148438 -19.625 19.554688 -20.28125 17.609375 -20.28125 C 15.671875 -20.28125 14.078125 -19.625 12.828125 -18.3125 C 11.585938 -17.007812 10.96875 -15.257812 10.96875 -13.0625 C 10.96875 -10.851562 11.585938 -9.09375 12.828125 -7.78125 C 14.078125 -6.476562 15.671875 -5.828125 17.609375 -5.828125 Z M 17.609375 -5.828125 "/></g></g></g><g fill="#ffffff" fill-opacity="1"><g transform="translate(593.50445, 430.068016)"><g><path d="M 14.03125 -26.5 C 18.070312 -26.5 21.175781 -25.535156 23.34375 -23.609375 C 25.507812 -21.679688 26.59375 -18.78125 26.59375 -14.90625 L 26.59375 0 L 19.515625 0 L 19.515625 -3.25 C 18.085938 -0.820312 15.429688 0.390625 11.546875 0.390625 C 9.546875 0.390625 7.804688 0.0507812 6.328125 -0.625 C 4.859375 -1.3125 3.734375 -2.25 2.953125 -3.4375 C 2.179688 -4.632812 1.796875 -5.992188 1.796875 -7.515625 C 1.796875 -9.941406 2.707031 -11.847656 4.53125 -13.234375 C 6.363281 -14.628906 9.1875 -15.328125 13 -15.328125 L 19.03125 -15.328125 C 19.03125 -16.984375 18.523438 -18.253906 17.515625 -19.140625 C 16.515625 -20.035156 15.007812 -20.484375 13 -20.484375 C 11.613281 -20.484375 10.25 -20.265625 8.90625 -19.828125 C 7.5625 -19.390625 6.421875 -18.796875 5.484375 -18.046875 L 2.765625 -23.34375 C 4.191406 -24.34375 5.898438 -25.117188 7.890625 -25.671875 C 9.878906 -26.222656 11.925781 -26.5 14.03125 -26.5 Z M 13.4375 -4.703125 C 14.738281 -4.703125 15.890625 -5 16.890625 -5.59375 C 17.890625 -6.195312 18.601562 -7.082031 19.03125 -8.25 L 19.03125 -10.921875 L 13.828125 -10.921875 C 10.722656 -10.921875 9.171875 -9.898438 9.171875 -7.859375 C 9.171875 -6.890625 9.550781 -6.117188 10.3125 -5.546875 C 11.070312 -4.984375 12.113281 -4.703125 13.4375 -4.703125 Z M 13.4375 -4.703125 "/></g></g></g><g fill="#ffffff" fill-opacity="1"><g transform="translate(624.416646, 430.068016)"><g><path d="M 3.5 -36.015625 L 11.0625 -36.015625 L 11.0625 0 L 3.5 0 Z M 3.5 -36.015625 "/></g></g></g><g fill="#ffffff" fill-opacity="1"><g transform="translate(639.994183, 430.068016)"><g/></g></g><g fill="#ffffff" fill-opacity="1"><g transform="translate(654.698226, 430.068016)"><g><path d="M 3.5 -36.015625 L 11.0625 -36.015625 L 11.0625 0 L 3.5 0 Z M 3.5 -36.015625 "/></g></g></g><g fill="#ffffff" fill-opacity="1"><g transform="translate(670.275751, 430.068016)"><g><path d="M 15.921875 0.390625 C 13.171875 0.390625 10.703125 -0.179688 8.515625 -1.328125 C 6.328125 -2.484375 4.617188 -4.078125 3.390625 -6.109375 C 2.160156 -8.148438 1.546875 -10.46875 1.546875 -13.0625 C 1.546875 -15.644531 2.160156 -17.953125 3.390625 -19.984375 C 4.617188 -22.023438 6.328125 -23.617188 8.515625 -24.765625 C 10.703125 -25.921875 13.171875 -26.5 15.921875 -26.5 C 18.671875 -26.5 21.128906 -25.921875 23.296875 -24.765625 C 25.460938 -23.617188 27.160156 -22.023438 28.390625 -19.984375 C 29.617188 -17.953125 30.234375 -15.644531 30.234375 -13.0625 C 30.234375 -10.46875 29.617188 -8.148438 28.390625 -6.109375 C 27.160156 -4.078125 25.460938 -2.484375 23.296875 -1.328125 C 21.128906 -0.179688 18.671875 0.390625 15.921875 0.390625 Z M 15.921875 -5.828125 C 17.859375 -5.828125 19.445312 -6.476562 20.6875 -7.78125 C 21.9375 -9.09375 22.5625 -10.851562 22.5625 -13.0625 C 22.5625 -15.257812 21.9375 -17.007812 20.6875 -18.3125 C 19.445312 -19.625 17.859375 -20.28125 15.921875 -20.28125 C 13.972656 -20.28125 12.367188 -19.625 11.109375 -18.3125 C 9.847656 -17.007812 9.21875 -15.257812 9.21875 -13.0625 C 9.21875 -10.851562 9.847656 -9.09375 11.109375 -7.78125 C 12.367188 -6.476562 13.972656 -5.828125 15.921875 -5.828125 Z M 15.921875 -5.828125 "/></g></g></g><g fill="#ffffff" fill-opacity="1"><g transform="translate(703.031991, 430.068016)"><g><path d="M 30.421875 -26.109375 L 30.421875 -4.375 C 30.421875 0.414062 29.175781 3.972656 26.6875 6.296875 C 24.195312 8.628906 20.554688 9.796875 15.765625 9.796875 C 13.242188 9.796875 10.847656 9.488281 8.578125 8.875 C 6.316406 8.257812 4.441406 7.375 2.953125 6.21875 L 5.96875 0.78125 C 7.070312 1.6875 8.460938 2.40625 10.140625 2.9375 C 11.828125 3.46875 13.507812 3.734375 15.1875 3.734375 C 17.8125 3.734375 19.742188 3.140625 20.984375 1.953125 C 22.234375 0.773438 22.859375 -1.003906 22.859375 -3.390625 L 22.859375 -4.515625 C 20.878906 -2.347656 18.128906 -1.265625 14.609375 -1.265625 C 12.210938 -1.265625 10.019531 -1.789062 8.03125 -2.84375 C 6.039062 -3.894531 4.460938 -5.375 3.296875 -7.28125 C 2.128906 -9.1875 1.546875 -11.382812 1.546875 -13.875 C 1.546875 -16.363281 2.128906 -18.5625 3.296875 -20.46875 C 4.460938 -22.382812 6.039062 -23.867188 8.03125 -24.921875 C 10.019531 -25.972656 12.210938 -26.5 14.609375 -26.5 C 18.390625 -26.5 21.269531 -25.253906 23.25 -22.765625 L 23.25 -26.109375 Z M 16.109375 -7.46875 C 18.117188 -7.46875 19.757812 -8.054688 21.03125 -9.234375 C 22.3125 -10.421875 22.953125 -11.96875 22.953125 -13.875 C 22.953125 -15.789062 22.3125 -17.335938 21.03125 -18.515625 C 19.757812 -19.691406 18.117188 -20.28125 16.109375 -20.28125 C 14.109375 -20.28125 12.457031 -19.691406 11.15625 -18.515625 C 9.863281 -17.335938 9.21875 -15.789062 9.21875 -13.875 C 9.21875 -11.96875 9.863281 -10.421875 11.15625 -9.234375 C 12.457031 -8.054688 14.109375 -7.46875 16.109375 -7.46875 Z M 16.109375 -7.46875 "/></g></g></g><g fill="#ffffff" fill-opacity="1"><g transform="translate(737.971968, 430.068016)"><g><path d="M 3.5 -26.109375 L 11.0625 -26.109375 L 11.0625 0 L 3.5 0 Z M 7.28125 -29.75 C 5.894531 -29.75 4.765625 -30.148438 3.890625 -30.953125 C 3.015625 -31.765625 2.578125 -32.769531 2.578125 -33.96875 C 2.578125 -35.164062 3.015625 -36.164062 3.890625 -36.96875 C 4.765625 -37.78125 5.894531 -38.1875 7.28125 -38.1875 C 8.675781 -38.1875 9.804688 -37.796875 10.671875 -37.015625 C 11.546875 -36.242188 11.984375 -35.28125 11.984375 -34.125 C 11.984375 -32.851562 11.546875 -31.804688 10.671875 -30.984375 C 9.804688 -30.160156 8.675781 -29.75 7.28125 -29.75 Z M 7.28125 -29.75 "/></g></g></g><g fill="#ffffff" fill-opacity="1"><g transform="translate(753.549505, 430.068016)"><g><path d="M 12.28125 0.390625 C 10.113281 0.390625 7.992188 0.125 5.921875 -0.40625 C 3.847656 -0.945312 2.195312 -1.617188 0.96875 -2.421875 L 3.5 -7.859375 C 4.65625 -7.117188 6.054688 -6.515625 7.703125 -6.046875 C 9.359375 -5.578125 10.976562 -5.34375 12.5625 -5.34375 C 15.769531 -5.34375 17.375 -6.132812 17.375 -7.71875 C 17.375 -8.457031 16.9375 -8.988281 16.0625 -9.3125 C 15.1875 -9.632812 13.84375 -9.910156 12.03125 -10.140625 C 9.894531 -10.460938 8.128906 -10.832031 6.734375 -11.25 C 5.347656 -11.675781 4.144531 -12.421875 3.125 -13.484375 C 2.101562 -14.554688 1.59375 -16.078125 1.59375 -18.046875 C 1.59375 -19.703125 2.070312 -21.164062 3.03125 -22.4375 C 3.988281 -23.71875 5.378906 -24.710938 7.203125 -25.421875 C 9.035156 -26.140625 11.195312 -26.5 13.6875 -26.5 C 15.53125 -26.5 17.363281 -26.296875 19.1875 -25.890625 C 21.019531 -25.484375 22.535156 -24.925781 23.734375 -24.21875 L 21.203125 -18.828125 C 18.910156 -20.117188 16.40625 -20.765625 13.6875 -20.765625 C 12.070312 -20.765625 10.859375 -20.535156 10.046875 -20.078125 C 9.234375 -19.628906 8.828125 -19.050781 8.828125 -18.34375 C 8.828125 -17.53125 9.265625 -16.960938 10.140625 -16.640625 C 11.015625 -16.316406 12.40625 -16.007812 14.3125 -15.71875 C 16.445312 -15.363281 18.191406 -14.984375 19.546875 -14.578125 C 20.910156 -14.179688 22.09375 -13.445312 23.09375 -12.375 C 24.101562 -11.3125 24.609375 -9.820312 24.609375 -7.90625 C 24.609375 -6.289062 24.117188 -4.851562 23.140625 -3.59375 C 22.171875 -2.332031 20.753906 -1.351562 18.890625 -0.65625 C 17.035156 0.0390625 14.832031 0.390625 12.28125 0.390625 Z M 12.28125 0.390625 "/></g></g></g><g fill="#ffffff" fill-opacity="1"><g transform="translate(780.288349, 430.068016)"><g><path d="M 20.328125 -1.265625 C 19.585938 -0.710938 18.675781 -0.296875 17.59375 -0.015625 C 16.507812 0.253906 15.367188 0.390625 14.171875 0.390625 C 11.066406 0.390625 8.664062 -0.398438 6.96875 -1.984375 C 5.269531 -3.578125 4.421875 -5.910156 4.421875 -8.984375 L 4.421875 -19.703125 L 0.390625 -19.703125 L 0.390625 -25.53125 L 4.421875 -25.53125 L 4.421875 -31.890625 L 11.984375 -31.890625 L 11.984375 -25.53125 L 18.484375 -25.53125 L 18.484375 -19.703125 L 11.984375 -19.703125 L 11.984375 -9.078125 C 11.984375 -7.972656 12.265625 -7.117188 12.828125 -6.515625 C 13.398438 -5.921875 14.203125 -5.625 15.234375 -5.625 C 16.429688 -5.625 17.453125 -5.945312 18.296875 -6.59375 Z M 20.328125 -1.265625 "/></g></g></g><g fill="#ffffff" fill-opacity="1"><g transform="translate(802.368533, 430.068016)"><g><path d="M 3.5 -26.109375 L 11.0625 -26.109375 L 11.0625 0 L 3.5 0 Z M 7.28125 -29.75 C 5.894531 -29.75 4.765625 -30.148438 3.890625 -30.953125 C 3.015625 -31.765625 2.578125 -32.769531 2.578125 -33.96875 C 2.578125 -35.164062 3.015625 -36.164062 3.890625 -36.96875 C 4.765625 -37.78125 5.894531 -38.1875 7.28125 -38.1875 C 8.675781 -38.1875 9.804688 -37.796875 10.671875 -37.015625 C 11.546875 -36.242188 11.984375 -35.28125 11.984375 -34.125 C 11.984375 -32.851562 11.546875 -31.804688 10.671875 -30.984375 C 9.804688 -30.160156 8.675781 -29.75 7.28125 -29.75 Z M 7.28125 -29.75 "/></g></g></g><g fill="#ffffff" fill-opacity="1"><g transform="translate(817.946093, 430.068016)"><g><path d="M 16.109375 0.390625 C 13.328125 0.390625 10.828125 -0.179688 8.609375 -1.328125 C 6.398438 -2.484375 4.671875 -4.078125 3.421875 -6.109375 C 2.171875 -8.148438 1.546875 -10.46875 1.546875 -13.0625 C 1.546875 -15.644531 2.171875 -17.953125 3.421875 -19.984375 C 4.671875 -22.023438 6.398438 -23.617188 8.609375 -24.765625 C 10.828125 -25.921875 13.328125 -26.5 16.109375 -26.5 C 18.859375 -26.5 21.257812 -25.921875 23.3125 -24.765625 C 25.375 -23.617188 26.875 -21.976562 27.8125 -19.84375 L 21.9375 -16.6875 C 20.570312 -19.082031 18.613281 -20.28125 16.0625 -20.28125 C 14.09375 -20.28125 12.457031 -19.632812 11.15625 -18.34375 C 9.863281 -17.050781 9.21875 -15.289062 9.21875 -13.0625 C 9.21875 -10.820312 9.863281 -9.054688 11.15625 -7.765625 C 12.457031 -6.472656 14.09375 -5.828125 16.0625 -5.828125 C 18.65625 -5.828125 20.613281 -7.023438 21.9375 -9.421875 L 27.8125 -6.21875 C 26.875 -4.144531 25.375 -2.523438 23.3125 -1.359375 C 21.257812 -0.191406 18.859375 0.390625 16.109375 0.390625 Z M 16.109375 0.390625 "/></g></g></g><g fill="#ffffff" fill-opacity="1"><g transform="translate(847.596566, 430.068016)"><g><path d="M 12.28125 0.390625 C 10.113281 0.390625 7.992188 0.125 5.921875 -0.40625 C 3.847656 -0.945312 2.195312 -1.617188 0.96875 -2.421875 L 3.5 -7.859375 C 4.65625 -7.117188 6.054688 -6.515625 7.703125 -6.046875 C 9.359375 -5.578125 10.976562 -5.34375 12.5625 -5.34375 C 15.769531 -5.34375 17.375 -6.132812 17.375 -7.71875 C 17.375 -8.457031 16.9375 -8.988281 16.0625 -9.3125 C 15.1875 -9.632812 13.84375 -9.910156 12.03125 -10.140625 C 9.894531 -10.460938 8.128906 -10.832031 6.734375 -11.25 C 5.347656 -11.675781 4.144531 -12.421875 3.125 -13.484375 C 2.101562 -14.554688 1.59375 -16.078125 1.59375 -18.046875 C 1.59375 -19.703125 2.070312 -21.164062 3.03125 -22.4375 C 3.988281 -23.71875 5.378906 -24.710938 7.203125 -25.421875 C 9.035156 -26.140625 11.195312 -26.5 13.6875 -26.5 C 15.53125 -26.5 17.363281 -26.296875 19.1875 -25.890625 C 21.019531 -25.484375 22.535156 -24.925781 23.734375 -24.21875 L 21.203125 -18.828125 C 18.910156 -20.117188 16.40625 -20.765625 13.6875 -20.765625 C 12.070312 -20.765625 10.859375 -20.535156 10.046875 -20.078125 C 9.234375 -19.628906 8.828125 -19.050781 8.828125 -18.34375 C 8.828125 -17.53125 9.265625 -16.960938 10.140625 -16.640625 C 11.015625 -16.316406 12.40625 -16.007812 14.3125 -15.71875 C 16.445312 -15.363281 18.191406 -14.984375 19.546875 -14.578125 C 20.910156 -14.179688 22.09375 -13.445312 23.09375 -12.375 C 24.101562 -11.3125 24.609375 -9.820312 24.609375 -7.90625 C 24.609375 -6.289062 24.117188 -4.851562 23.140625 -3.59375 C 22.171875 -2.332031 20.753906 -1.351562 18.890625 -0.65625 C 17.035156 0.0390625 14.832031 0.390625 12.28125 0.390625 Z M 12.28125 0.390625 "/></g></g></g>
</svg>